<?xml version="1.0" encoding="UTF-8" standalone="no"?>
<!-- Created with Inkscape (http://www.inkscape.org/) -->

<svg
   xmlns:dc="http://purl.org/dc/elements/1.1/"
   xmlns:cc="http://creativecommons.org/ns#"
   xmlns:rdf="http://www.w3.org/1999/02/22-rdf-syntax-ns#"
   xmlns:svg="http://www.w3.org/2000/svg"
   xmlns="http://www.w3.org/2000/svg"
   xmlns:sodipodi="http://sodipodi.sourceforge.net/DTD/sodipodi-0.dtd"
   xmlns:inkscape="http://www.inkscape.org/namespaces/inkscape"
   width="640"
   height="480"
   id="svg3352"
   version="1.1"
   inkscape:version="0.91 r13725"
   viewBox="0 0 640 480"
   sodipodi:docname="crypto_talk_bob_encrypted_message2.svg">
  <defs
     id="defs3354" />
  <sodipodi:namedview
     id="base"
     pagecolor="#ffffff"
     bordercolor="#666666"
     borderopacity="1.0"
     inkscape:pageopacity="0.0"
     inkscape:pageshadow="2"
     inkscape:zoom="0.78349551"
     inkscape:cx="352.41244"
     inkscape:cy="321.24614"
     inkscape:current-layer="layer5"
     inkscape:document-units="px"
     showgrid="false"
     inkscape:window-width="1309"
     inkscape:window-height="744"
     inkscape:window-x="51"
     inkscape:window-y="24"
     inkscape:window-maximized="1" />
  <metadata
     id="metadata3357">
    <rdf:RDF>
      <cc:Work
         rdf:about="">
        <dc:format>image/svg+xml</dc:format>
        <dc:type
           rdf:resource="http://purl.org/dc/dcmitype/StillImage" />
        <dc:title></dc:title>
      </cc:Work>
    </rdf:RDF>
  </metadata>
  <g
     inkscape:groupmode="layer"
     id="layer3"
     inkscape:label="bob-secret"
     style="display:inline">
    <rect
       y="163.57329"
       x="318.30133"
       height="51.206955"
       width="102.41391"
       id="rect4222"
       style="opacity:1;fill:#ffffff;fill-opacity:1;stroke:#000000;stroke-width:2.20000005;stroke-linecap:round;stroke-linejoin:round;stroke-miterlimit:4;stroke-dasharray:none;stroke-opacity:1" />
    <path
       inkscape:connector-curvature="0"
       id="path4224"
       d="m 319.4922,165.955 46.44352,23.81719 51.20695,-25.00805 3.57258,0 -2.38172,-1.19086 -4.76344,-19.05374 -46.44351,-22.62633 -47.63438,22.62633 z"
       style="fill:#d6fad7;fill-opacity:1;fill-rule:evenodd;stroke:#000000;stroke-width:2.5;stroke-linecap:butt;stroke-linejoin:miter;stroke-miterlimit:4;stroke-dasharray:none;stroke-opacity:1" />
    <path
       inkscape:connector-curvature="0"
       id="path4226"
       d="m 319.4922,164.76414 95.26875,-1.19086 2.38172,-1.19086"
       style="fill:none;fill-rule:evenodd;stroke:#000000;stroke-width:2.5;stroke-linecap:butt;stroke-linejoin:miter;stroke-miterlimit:4;stroke-dasharray:none;stroke-opacity:1" />
    <text
       sodipodi:linespacing="125%"
       id="text4259"
       y="108.64467"
       x="344.51904"
       style="font-style:normal;font-variant:normal;font-weight:normal;font-stretch:normal;font-size:27.5px;line-height:125%;font-family:'Droid Sans';-inkscape-font-specification:'Droid Sans, Normal';text-align:start;letter-spacing:0px;word-spacing:0px;writing-mode:lr-tb;text-anchor:start;fill:#000000;fill-opacity:1;stroke:none;stroke-width:1px;stroke-linecap:butt;stroke-linejoin:miter;stroke-opacity:1"
       xml:space="preserve"><tspan
         style="font-style:normal;font-variant:normal;font-weight:normal;font-stretch:normal;font-size:22.5px;line-height:125%;font-family:'Droid Sans';-inkscape-font-specification:'Droid Sans, Normal';text-align:start;writing-mode:lr-tb;text-anchor:start;fill:#000000"
         y="108.64467"
         x="344.51904"
         id="tspan4261"
         sodipodi:role="line">Bob's Public Key</tspan></text>
    <flowRoot
       xml:space="preserve"
       id="flowRoot4410"
       style="font-style:normal;font-variant:normal;font-weight:normal;font-stretch:normal;font-size:27.5px;line-height:125%;font-family:'Droid Sans';-inkscape-font-specification:'Droid Sans, Normal';text-align:start;letter-spacing:0px;word-spacing:0px;writing-mode:lr-tb;text-anchor:start;fill:#000000;fill-opacity:1;stroke:none;stroke-width:1px;stroke-linecap:butt;stroke-linejoin:miter;stroke-opacity:1"><flowRegion
         id="flowRegion4412"><rect
           id="rect4414"
           width="36.916641"
           height="40.48922"
           x="261.98907"
           y="44.145458" /></flowRegion><flowPara
         id="flowPara4416"></flowPara></flowRoot>  </g>
  <g
     inkscape:groupmode="layer"
     id="layer6"
     inkscape:label="bob">
    <rect
       style="display:inline;opacity:1;fill:#00ff00;fill-opacity:1;stroke:#000000;stroke-width:3.9892664;stroke-linecap:round;stroke-linejoin:round;stroke-miterlimit:4;stroke-dasharray:none;stroke-opacity:1"
       id="rect7292-2"
       width="104.85471"
       height="102.27315"
       x="247.51056"
       y="304.09995"
       inkscape:transform-center-x="166.64405"
       inkscape:transform-center-y="47.202986" />
    <text
       xml:space="preserve"
       style="font-style:normal;font-variant:normal;font-weight:normal;font-stretch:normal;font-size:27.5px;line-height:125%;font-family:'Droid Sans';-inkscape-font-specification:'Droid Sans, Normal';text-align:start;letter-spacing:0px;word-spacing:0px;writing-mode:lr-tb;text-anchor:start;display:inline;fill:#000000;fill-opacity:1;stroke:none;stroke-width:1px;stroke-linecap:butt;stroke-linejoin:miter;stroke-opacity:1"
       x="255.66437"
       y="450.56262"
       id="text8209"
       sodipodi:linespacing="125%"><tspan
         sodipodi:role="line"
         id="tspan8211"
         x="255.66437"
         y="450.56262"
         style="font-style:normal;font-variant:normal;font-weight:normal;font-stretch:normal;font-size:40px;line-height:125%;font-family:'Droid Sans';-inkscape-font-specification:'Droid Sans, Normal';text-align:start;writing-mode:lr-tb;text-anchor:start">Bob</tspan></text>
    <path
       style="display:inline;fill:none;fill-rule:evenodd;stroke:#000000;stroke-width:5.0999999;stroke-linecap:butt;stroke-linejoin:miter;stroke-miterlimit:4;stroke-dasharray:none;stroke-opacity:1"
       d="m 286.43059,373.60722 c 0.43026,1.72104 0.49742,3.5764 1.29078,5.16312 0.19242,0.38484 0.90595,-0.19242 1.29078,0 0.54424,0.27212 0.74654,1.01866 1.29078,1.29078 0.76967,0.38484 1.81189,-0.38484 2.58156,0 0.54424,0.27212 0.74654,1.01866 1.29078,1.29078 0.51179,0.25589 3.60846,-0.26388 3.87234,0 0.30424,0.30424 -0.30424,0.98654 0,1.29078 0.60848,0.60848 1.97308,-0.60848 2.58156,0 0.30424,0.30424 -0.30424,0.98654 0,1.29078 0.30424,0.30424 0.86052,0 1.29078,0 1.72104,0 3.44208,0 5.16312,0 0.43026,0 0.86052,0 1.29078,0 0.43026,0 0.90595,0.19242 1.29078,0 0.54424,-0.27212 0.74654,-1.01866 1.29078,-1.29078 0.38484,-0.19242 0.98654,0.30424 1.29078,0 0.30424,-0.30424 -0.30424,-0.98654 0,-1.29078 0.60848,-0.60848 1.97308,0.60848 2.58156,0 0.30424,-0.30424 -0.30424,-0.98654 0,-1.29078 0.30424,-0.30424 0.98654,0.30424 1.29078,0 0.60848,-0.60848 -0.60848,-1.97308 0,-2.58156 0.30424,-0.30424 0.98654,0.30424 1.29078,0 0.60848,-0.60848 -0.38483,-1.81189 0,-2.58156 0.27212,-0.54424 1.01866,-0.74654 1.29078,-1.29078 0.19242,-0.38484 -0.30424,-0.98654 0,-1.29078 0.30424,-0.30424 0.90595,0.19242 1.29078,0 1.08849,-0.54424 1.49308,-2.03732 2.58157,-2.58156 0.76967,-0.38484 1.97308,0.60848 2.58156,0 1.72104,-1.72104 -2.1513,-1.29078 1.29078,-1.29078"
       id="path8217"
       inkscape:connector-curvature="0" />
    <path
       style="display:inline;fill:none;fill-rule:evenodd;stroke:#000000;stroke-width:5.0999999;stroke-linecap:butt;stroke-linejoin:miter;stroke-miterlimit:4;stroke-dasharray:none;stroke-opacity:1"
       d="m 282.71524,328.16281 c -0.28249,1.69492 -0.65771,3.37697 -0.84746,5.08475 -0.0503,0.45244 -0.15459,5.31384 0,5.9322 0.1532,0.6128 0.69426,1.08212 0.84746,1.69492 0.13702,0.5481 -0.13703,1.14681 0,1.69491 0.1532,0.6128 0.69426,1.08212 0.84746,1.69492 0.11796,0.47184 -0.14631,4.09098 0,4.23729 0.19974,0.19975 0.84745,-0.28249 0.84745,0 0,0.28248 -0.56497,0 -0.84745,0"
       id="path4153"
       inkscape:connector-curvature="0" />
    <path
       style="display:inline;fill:none;fill-rule:evenodd;stroke:#000000;stroke-width:5.0999999;stroke-linecap:butt;stroke-linejoin:miter;stroke-miterlimit:4;stroke-dasharray:none;stroke-opacity:1"
       d="m 313.22371,328.16281 c 0,1.69492 0,3.38984 0,5.08475 0,0.28249 0.12633,0.5948 0,0.84746 -0.17866,0.35732 -0.72112,0.46846 -0.84746,0.84746 -0.17865,0.53598 0,1.12994 0,1.69491 0,0.56497 0,1.12994 0,1.69492 0,1.9774 0,3.9548 0,5.9322 0,1.12994 0,2.25989 0,3.38983 0,0.28249 -0.19974,0.64771 0,0.84746 1.12995,1.12994 0.84746,-1.41243 0.84746,0.84746"
       id="path4155"
       inkscape:connector-curvature="0" />
  </g>
  <g
     inkscape:groupmode="layer"
     id="layer5"
     inkscape:label="encrypted-message"
     style="display:inline">
    <rect
       y="217.44026"
       x="53.526272"
       height="123.84938"
       width="103.60477"
       id="rect4426"
       style="opacity:1;fill:#ececec;fill-opacity:1;stroke:#000000;stroke-width:1.79999995;stroke-linecap:round;stroke-linejoin:round;stroke-miterlimit:4;stroke-dasharray:none;stroke-opacity:1" />
    <path
       style="fill:none;fill-rule:evenodd;stroke:#000000;stroke-width:2.4000001;stroke-linecap:butt;stroke-linejoin:miter;stroke-miterlimit:4;stroke-dasharray:none;stroke-opacity:1"
       d="m 63.352121,239.6012 c 0,-0.98733 0,-1.97467 0,-2.96201 0.24683,0 0.56596,0.17454 0.7405,0 0.15139,-0.15138 -0.1468,-1.9279 0,-2.2215 0.15611,-0.31223 0.49367,-0.49367 0.7405,-0.74051 0.24684,-0.24683 0.42828,-0.58439 0.74051,-0.7405 0.22077,-0.11039 0.49366,0 0.7405,0 1.73661,0 -0.34908,0.17454 1.481,-0.7405 0.22078,-0.11039 0.51973,0.11039 0.74051,0 0.31222,-0.15611 0.42827,-0.58439 0.7405,-0.7405 0.22536,-0.11268 1.88801,0 2.22151,0 0.59613,0 2.49723,-0.15493 2.962,0 0.52362,0.17454 0.9574,0.56596 1.48101,0.7405 0.23417,0.0781 0.51973,-0.11039 0.7405,0 0.31222,0.15611 0.49367,0.49367 0.7405,0.7405 0.24684,0.24684 0.49367,0.49367 0.74051,0.7405 0.24683,0.24684 0.49366,0.49367 0.7405,0.74051 0.24683,0.24683 0.58439,0.42828 0.7405,0.7405 0.11039,0.22077 -0.11039,0.51973 0,0.7405 0.15611,0.31222 0.58439,0.42828 0.7405,0.7405 0.11039,0.22078 -0.078,0.50634 0,0.74051 0.17454,0.52361 0.60664,0.94554 0.74051,1.481 0.11973,0.47893 -0.0968,0.99692 0,1.48101 0.15308,0.7654 0.55119,1.46425 0.7405,2.2215 0.16184,0.64736 -0.19361,4.0558 0,4.44302 0.15611,0.31222 0.58439,0.42828 0.7405,0.7405 0.11039,0.22077 0,0.49367 0,0.7405 0,0.24684 0,0.49367 0,0.7405 0,1.48101 0,2.96201 0,4.44302 0,0.24683 0,0.49367 0,0.7405 0,0.24683 0.17454,0.56597 0,0.7405 -0.17454,0.17454 -0.56596,-0.17453 -0.7405,0 -0.17454,0.17454 0.17454,0.56597 0,0.74051 -0.17454,0.17453 -0.49367,0 -0.7405,0 -0.24684,0 -0.49367,0 -0.74051,0 -1.481,0 -2.96201,0 -4.44301,0 -0.24683,0 -0.56596,-0.17454 -0.7405,0 -0.17454,0.17453 0.17454,0.56596 0,0.7405 -0.17454,0.17454 -0.56597,-0.17454 -0.74051,0 -0.17453,0.17454 0,0.49367 0,0.7405 0,0.24683 0,0.49367 0,0.7405 0,1.48101 0,2.96201 0,4.44302 0,0.7405 -0.14522,1.49538 0,2.2215 0.10825,0.54122 0.63226,0.93979 0.74051,1.48101 0.14522,0.72612 0,1.481 0,2.22151 0,1.23417 0,2.46834 0,3.70251"
       id="path4430"
       inkscape:connector-curvature="0" />
    <path
       style="fill:none;fill-rule:evenodd;stroke:#000000;stroke-width:1px;stroke-linecap:butt;stroke-linejoin:miter;stroke-opacity:1"
       d="m 76.681161,289.95536 c 0,-3.94934 0,-3.94934 0,0 z"
       id="path4432"
       inkscape:connector-curvature="0" />
    <path
       style="fill:none;fill-rule:evenodd;stroke:#000000;stroke-width:2.4000001;stroke-linecap:butt;stroke-linejoin:miter;stroke-miterlimit:4;stroke-dasharray:none;stroke-opacity:1"
       d="m 111.48477,258.85427 c 0,-1.97468 0,-3.94935 0,-5.92402 0,-0.24684 0,-0.49367 0,-0.74051 0,-0.24683 -0.11038,-0.51972 0,-0.7405 0.81865,-1.63729 0.45959,-0.22979 1.48101,-0.7405 0.31222,-0.15611 0.42828,-0.58439 0.7405,-0.7405 0.22514,-0.11257 2.45068,0 2.96201,0 1.97467,0 3.94935,0 5.92402,0 0.17959,0 2.19769,-0.0238 2.22151,0 0.17453,0.17453 -0.11039,0.51972 0,0.7405 0.15611,0.31222 0.54687,0.45005 0.7405,0.7405 0.30616,0.45924 0.43434,1.02177 0.7405,1.48101 0.38727,0.58089 1.09374,0.9001 1.48101,1.481 0.3146,0.4719 2.10142,3.96269 2.2215,4.44302 0.11973,0.47892 -0.11973,1.00207 0,1.481 0.13387,0.53546 0.60664,0.94555 0.74051,1.481 0.17959,0.7184 0,1.48101 0,2.22151 0,1.72784 0,3.45568 0,5.18352 0,1.23417 0,2.46834 0,3.70251 0,0.49367 0.11973,1.00208 0,1.481 -0.0825,0.3299 -0.86513,2.01622 -1.48101,2.22151 -0.46833,0.15611 -1.01267,-0.15611 -1.481,0 -0.33117,0.11039 -0.49367,0.49367 -0.74051,0.7405 -0.75273,0.75274 -1.02602,1.18214 -2.2215,1.48101 -0.47893,0.11973 -0.98734,0 -1.48101,0 -0.24683,0 -0.51973,-0.11039 -0.7405,0 -0.31222,0.15611 -0.42828,0.58439 -0.7405,0.7405 -0.44124,0.22062 -3.01449,-0.17201 -3.70252,0 -1.5145,0.37863 -2.90313,1.22436 -4.44301,1.48101 -0.5715,0.0953 -3.38309,-0.53719 -3.70251,0.7405 -0.1796,0.71839 0,1.481 0,2.22151 0,0.49366 0,0.98733 0,1.481 0,0.49367 0,0.98734 0,1.48101 0,0.24683 -0.0781,0.50633 0,0.7405 0.17454,0.52361 0.60664,0.94554 0.7405,1.481 0.16314,0.65256 -0.21904,4.00493 0,4.44302 0.15611,0.31222 0.58439,0.42828 0.7405,0.7405 0.11039,0.22077 0,0.49367 0,0.7405 0,0.24684 0,0.49367 0,0.7405 0,1.48101 0,2.96201 0,4.44302"
       id="path4434"
       inkscape:connector-curvature="0" />
    <path
       style="fill:none;fill-rule:evenodd;stroke:#000000;stroke-width:2.4000001;stroke-linecap:butt;stroke-linejoin:miter;stroke-miterlimit:4;stroke-dasharray:none;stroke-opacity:1"
       d="m 113.70628,311.42993 c 0.80037,3.20148 0.7405,1.94429 0.7405,3.70252 0,1.72783 0,3.45567 0,5.18351 0,0.24684 0.17454,0.56597 0,0.7405 -0.17454,0.17454 -0.49367,0 -0.7405,0 -0.24683,0 -0.56596,0.17454 -0.7405,0 -0.17454,-0.17453 0.17454,-0.56596 0,-0.7405 -0.17454,-0.17454 -0.56597,0.17454 -0.7405,0 -0.17454,-0.17454 0.11038,-0.51973 0,-0.7405 -1.5409,-3.08179 0.0511,0.79162 -1.48101,-0.7405 -0.17454,-0.17454 0.17454,-0.56597 0,-0.7405 -1.53212,-1.53213 0.0599,2.34129 -1.481,-0.74051 -0.11039,-0.22077 0,-0.49367 0,-0.7405 0,-0.24683 0,-0.49367 0,-0.7405 0,-0.33349 -0.11268,-1.99615 0,-2.22151 0.15611,-0.31222 0.58439,-0.42828 0.7405,-0.7405 1.08958,-2.17916 -1.71544,0.97493 0.7405,-1.48101"
       id="path4436"
       inkscape:connector-curvature="0" />
    <path
       style="fill:none;fill-rule:evenodd;stroke:#000000;stroke-width:2.4000001;stroke-linecap:butt;stroke-linejoin:miter;stroke-miterlimit:4;stroke-dasharray:none;stroke-opacity:1"
       d="m 75.940661,285.51235 c 0.98734,-0.24683 1.94429,-0.7405 2.96201,-0.7405 0.34908,0 0.49367,0.49367 0.7405,0.7405 0.24684,0.24683 0.49367,0.49367 0.7405,0.7405 0,0.24684 -0.17453,0.56597 0,0.74051 0.17454,0.17453 0.56597,-0.17454 0.74051,0 0.22929,0.22929 -0.2293,3.47321 0,3.70251 0.17453,0.17454 0.56596,-0.17454 0.7405,0 0.17454,0.17454 0,0.49367 0,0.7405 0,0.34914 0.0336,3.66895 0,3.70251 -0.17454,0.17454 -0.49367,0 -0.7405,0 -0.1796,0 -2.1977,0.0238 -2.22151,0 -0.34908,-0.34907 0.34908,-1.13193 0,-1.481 -0.37025,-0.37025 -1.85126,0.37025 -2.22151,0 -0.17454,-0.17454 0.17454,-0.56597 0,-0.74051 -1.53212,-1.53212 0.0599,2.3413 -1.481,-0.7405 -0.11039,-0.22077 0,-0.49367 0,-0.7405 0,-0.24683 0,-0.49367 0,-0.7405 0,-2.48222 -0.0186,-2.14712 0.7405,-5.18352 z"
       id="path4438"
       inkscape:connector-curvature="0" />
    <text
       xml:space="preserve"
       style="font-style:normal;font-variant:normal;font-weight:normal;font-stretch:normal;font-size:27.5px;line-height:125%;font-family:'Droid Sans';-inkscape-font-specification:'Droid Sans, Normal';text-align:start;letter-spacing:0px;word-spacing:0px;writing-mode:lr-tb;text-anchor:start;fill:#000000;fill-opacity:1;stroke:none;stroke-width:1px;stroke-linecap:butt;stroke-linejoin:miter;stroke-opacity:1"
       x="11.312304"
       y="376.56424"
       id="text4440"
       sodipodi:linespacing="125%"><tspan
         sodipodi:role="line"
         id="tspan4442"
         x="11.312304"
         y="376.56424"
         style="font-style:normal;font-variant:normal;font-weight:normal;font-stretch:normal;font-size:20px;line-height:125%;font-family:'Droid Sans';-inkscape-font-specification:'Droid Sans, Normal';text-align:start;writing-mode:lr-tb;text-anchor:start">encrypted message</tspan></text>
    <text
       sodipodi:linespacing="125%"
       id="text4639"
       y="425.06485"
       x="414.63306"
       style="font-style:normal;font-variant:normal;font-weight:normal;font-stretch:normal;font-size:27.5px;line-height:125%;font-family:'Droid Sans';-inkscape-font-specification:'Droid Sans, Normal';text-align:start;letter-spacing:0px;word-spacing:0px;writing-mode:lr-tb;text-anchor:start;fill:#000000;fill-opacity:1;stroke:none;stroke-width:1px;stroke-linecap:butt;stroke-linejoin:miter;stroke-opacity:1"
       xml:space="preserve"><tspan
         style="font-style:normal;font-variant:normal;font-weight:normal;font-stretch:normal;font-size:20px;line-height:125%;font-family:'Droid Sans';-inkscape-font-specification:'Droid Sans, Normal';text-align:start;writing-mode:lr-tb;text-anchor:start"
         y="425.06485"
         x="414.63306"
         id="tspan4641"
         sodipodi:role="line">decrypted message!</tspan></text>
  </g>
  <g
     inkscape:groupmode="layer"
     id="layer4"
     inkscape:label="alice-secret"
     style="display:inline">
    <path
       style="fill:#d6fad7;fill-opacity:1;fill-rule:evenodd;stroke:#000000;stroke-width:2.04754376;stroke-linecap:butt;stroke-linejoin:miter;stroke-miterlimit:4;stroke-dasharray:none;stroke-opacity:1"
       d="m 222.14517,155.70283 8.36722,52.04434 25.10167,-26.76566 14.22429,-0.74349 4.18361,-8.92189 13.38756,3.71744 0.83673,-13.38282 17.57117,8.92188 -10.04067,-22.30472 -49.36663,20.81774 z"
       id="path4157"
       inkscape:connector-curvature="0" />
    <path
       style="fill:none;fill-rule:evenodd;stroke:#000000;stroke-width:6;stroke-linecap:butt;stroke-linejoin:miter;stroke-miterlimit:4;stroke-dasharray:none;stroke-opacity:1"
       d="m 139.75755,230.45213 46.47747,-30.09349 -32.93758,-3.36794 36.76245,2.20467 -16.19004,29.50002"
       id="path4418"
       inkscape:connector-curvature="0"
       sodipodi:nodetypes="ccccc" />
    <path
       sodipodi:nodetypes="ccccc"
       inkscape:connector-curvature="0"
       id="path4420"
       d="m 446.62256,206.81547 48.60314,38.54058 -8.09308,-35.99022 10.69151,39.6234 -37.22327,-6.7429"
       style="fill:none;fill-rule:evenodd;stroke:#000000;stroke-width:6.71439886;stroke-linecap:butt;stroke-linejoin:miter;stroke-miterlimit:4;stroke-dasharray:none;stroke-opacity:1" />
    <text
       xml:space="preserve"
       style="font-style:normal;font-variant:normal;font-weight:normal;font-stretch:normal;font-size:27.5px;line-height:125%;font-family:'Droid Sans';-inkscape-font-specification:'Droid Sans, Normal';text-align:start;letter-spacing:0px;word-spacing:0px;writing-mode:lr-tb;text-anchor:start;display:inline;fill:#000000;fill-opacity:1;stroke:none;stroke-width:1px;stroke-linecap:butt;stroke-linejoin:miter;stroke-opacity:1"
       x="121.8026"
       y="108.43999"
       id="text4422"
       sodipodi:linespacing="125%"><tspan
         sodipodi:role="line"
         id="tspan4424"
         x="121.8026"
         y="108.43999"
         style="font-style:normal;font-variant:normal;font-weight:normal;font-stretch:normal;font-size:22.5px;line-height:125%;font-family:'Droid Sans';-inkscape-font-specification:'Droid Sans, Normal';text-align:start;writing-mode:lr-tb;text-anchor:start;fill:#000000">Bob's Secret Key + </tspan></text>
  </g>
  <g
     id="layer1"
     inkscape:label="Layer 1"
     inkscape:groupmode="layer"
     style="display:inline">
    <text
       xml:space="preserve"
       style="font-style:normal;font-variant:normal;font-weight:normal;font-stretch:normal;font-size:27.5px;line-height:125%;font-family:'Droid Sans';-inkscape-font-specification:'Droid Sans, Normal';text-align:start;letter-spacing:0px;word-spacing:0px;writing-mode:lr-tb;text-anchor:start;fill:#000000;fill-opacity:1;stroke:none;stroke-width:1px;stroke-linecap:butt;stroke-linejoin:miter;stroke-opacity:1"
       x="107.13475"
       y="153.43262"
       id="text8138"
       sodipodi:linespacing="125%"><tspan
         sodipodi:role="line"
         id="tspan8140"
         x="107.13475"
         y="153.43262" /></text>
    <rect
       style="opacity:0;fill:#822424;fill-opacity:1;stroke:#000000;stroke-width:2.20000005;stroke-linecap:round;stroke-linejoin:round;stroke-miterlimit:4;stroke-dasharray:none;stroke-opacity:1"
       id="rect4161"
       width="110.1695"
       height="54.237282"
       x="174.48788"
       y="116.90055" />
    <rect
       y="192.93466"
       x="380.84158"
       height="41.68008"
       width="91.696175"
       id="rect4220"
       style="opacity:0;fill:#af4343;fill-opacity:1;stroke:#000000;stroke-width:2.20000005;stroke-linecap:round;stroke-linejoin:round;stroke-miterlimit:4;stroke-dasharray:none;stroke-opacity:1" />
    <rect
       style="opacity:1;fill:#ececec;fill-opacity:1;stroke:#000000;stroke-width:1.79999995;stroke-linecap:round;stroke-linejoin:round;stroke-miterlimit:4;stroke-dasharray:none;stroke-opacity:1"
       id="rect4324"
       width="103.60477"
       height="123.84938"
       x="481.19385"
       y="267.75302" />
    <path
       style="fill:none;fill-rule:evenodd;stroke:#000000;stroke-width:1.39999998;stroke-linecap:butt;stroke-linejoin:miter;stroke-miterlimit:4;stroke-dasharray:none;stroke-opacity:1"
       d="m 495.48416,313.00567 c 3.40478,2.16529 4.09659,-2.64372 5.95429,-3.57258 0.35505,-0.17752 0.83582,0.17753 1.19086,0 0.50211,-0.25105 0.68875,-0.9398 1.19086,-1.19086 0.35505,-0.17752 0.83582,0.17753 1.19086,0 0.50211,-0.25105 0.68875,-0.9398 1.19086,-1.19086 0.35505,-0.17752 0.83582,0.17753 1.19086,0 0.50211,-0.25105 0.68875,-0.9398 1.19086,-1.19086 0.0623,-0.0311 3.51028,-0.0311 3.57258,0 0.50211,0.25106 0.79391,0.79391 1.19086,1.19086 0.39695,0.39696 0.79391,0.79391 1.19086,1.19086 0.93016,0.93017 2.88752,2.54499 3.57258,3.57258 0.49236,0.73854 0.56322,1.75408 1.19086,2.38172 0.28069,0.28069 0.91017,-0.28069 1.19086,0 0.28069,0.28069 -0.28069,0.91017 0,1.19086 0.28069,0.28069 0.7939,0 1.19086,0 0.39695,0 0.83581,0.17752 1.19086,0 1.42903,-0.71452 2.14354,-2.85806 3.57257,-3.57258 0.35505,-0.17752 0.79391,0 1.19086,0 0.39696,0 0.79391,0 1.19086,0 1.98477,0 3.96953,0 5.9543,0 0.68617,0 5.52026,0.21702 5.9543,0 0.50211,-0.25105 0.65829,-1.01334 1.19086,-1.19086 1.12974,-0.37658 2.38171,0 3.57257,0 0.39696,0 0.83582,-0.17752 1.19086,0 0.50211,0.25106 0.68875,0.93981 1.19086,1.19086 0.35505,0.17752 0.83582,-0.17752 1.19086,0 0.50211,0.25106 0.68875,0.93981 1.19086,1.19086 0.70263,0.35132 2.75347,-0.27304 3.57258,0 0.84206,0.28069 1.53965,0.91017 2.38172,1.19086 0.67188,0.22396 2.79005,0 3.57258,0 0.39695,0 0.91017,0.28069 1.19086,0 0.28068,-0.28069 -0.39696,-1.19086 0,-1.19086 0.39695,0 0,0.79391 0,1.19086"
       id="path4326"
       inkscape:connector-curvature="0" />
    <path
       style="fill:none;fill-rule:evenodd;stroke:#000000;stroke-width:1.39999998;stroke-linecap:butt;stroke-linejoin:miter;stroke-miterlimit:4;stroke-dasharray:none;stroke-opacity:1"
       d="m 500.2476,334.44114 c 1.58781,0 3.20645,0.3114 4.76343,0 0.55048,-0.1101 0.65829,-1.01334 1.19086,-1.19086 0.29688,-0.099 5.83163,0.12267 5.9543,0 0.28069,-0.28069 -0.28069,-0.91017 0,-1.19086 0.28069,-0.28069 0.79391,0 1.19086,0 0.62272,0 4.45031,-0.15656 4.76344,0 4.95607,2.47804 -1.27307,-0.0822 1.19086,2.38172 0.28069,0.28069 0.91017,-0.28069 1.19086,0 0.28069,0.28069 -0.28069,0.91017 0,1.19086 0.28069,0.28069 0.7939,0 1.19086,0 1.98476,0 3.96953,0 5.95429,0 0.39696,0 0.83582,0.17752 1.19086,0 0.50211,-0.25106 0.72377,-0.87946 1.19086,-1.19086 0.73854,-0.49236 1.58781,-0.79391 2.38172,-1.19086 0.79391,-0.39695 1.53965,-0.91017 2.38172,-1.19086 0.37658,-0.12553 0.91017,0.28069 1.19086,0 0.28069,-0.28069 -0.28069,-0.91017 0,-1.19086 0.28069,-0.28069 1.01334,-0.35504 1.19086,0 0.53257,1.06514 0,2.38172 0,3.57258 0,0.39695 -0.35505,1.01334 0,1.19086 2.80172,1.40086 2.98288,-1.49144 4.76344,-2.38172 0.35504,-0.17752 0.91017,0.28069 1.19086,0 0.28068,-0.28069 -0.28069,-0.91017 0,-1.19086 0.28068,-0.28069 0.7939,0 1.19085,0 0.39696,0 0.83582,-0.17752 1.19086,0 5.4501,2.72505 -5.05331,-0.49358 3.57258,2.38172 0.81911,0.27304 2.86995,-0.35132 3.57258,0 2.9431,1.47155 -0.41106,1.19086 2.38172,1.19086"
       id="path4328"
       inkscape:connector-curvature="0" />
    <path
       style="fill:none;fill-rule:evenodd;stroke:#000000;stroke-width:1.39999998;stroke-linecap:butt;stroke-linejoin:miter;stroke-miterlimit:4;stroke-dasharray:none;stroke-opacity:1"
       d="m 493.10244,367.7852 c 0.0927,-2.2925 7.97299,-0.6729 9.52687,-1.19086 0.84207,-0.28068 1.53966,-0.91017 2.38172,-1.19086 0.37659,-0.12552 0.83582,0.17753 1.19086,0 0.50211,-0.25105 0.68875,-0.9398 1.19086,-1.19086 0.24428,-0.12213 3.40464,-0.16794 3.57258,0 2.38017,2.38017 -2.38017,0.002 0,2.38172 0.28069,0.28069 0.91017,-0.28068 1.19086,0 0.28069,0.28069 -0.28069,0.91017 0,1.19086 0.28069,0.28069 0.79391,0 1.19086,0 1.01062,0 6.48866,0.21883 7.14516,0 0.53257,-0.17752 0.65829,-1.01333 1.19086,-1.19086 5.42113,0 0.0681,0.56138 3.57257,-1.19086 0.35505,-0.17752 0.79391,0 1.19086,0 0.39696,0 0.83582,-0.17752 1.19086,0 0.50211,0.25106 0.68875,0.93981 1.19086,1.19086 0.43404,0.21702 5.26813,0 5.9543,0 0.39695,0 0.91017,0.28069 1.19086,0 0.28069,-0.28068 -0.28069,-0.91017 0,-1.19086 0.28069,-0.28068 0.79391,0 1.19086,0 0.39695,0 0.91017,-0.28068 1.19086,0 0.56137,0.56138 -0.56138,1.82035 0,2.38172 0.28069,0.28069 0.91017,-0.28069 1.19086,0 2.46393,2.46393 -3.76521,-0.0963 1.19086,2.38172 3.50447,1.75224 -1.56787,-2.75872 2.38172,1.19086"
       id="path4332"
       inkscape:connector-curvature="0" />
    <path
       style="fill:none;fill-rule:evenodd;stroke:#000000;stroke-width:1.39999998;stroke-linecap:butt;stroke-linejoin:miter;stroke-miterlimit:4;stroke-dasharray:none;stroke-opacity:1"
       d="m 539.54596,291.5702 c 1.58781,-1.19086 2.98821,-2.68496 4.76343,-3.57258 0.28004,-0.14001 3.98114,0 4.76344,0 4.36649,0 8.73297,0 13.09945,0 0.28881,0 3.53428,-0.0383 3.57257,0 0.28069,0.28069 0,0.79391 0,1.19086"
       id="path4334"
       inkscape:connector-curvature="0" />
  </g>
</svg>
