<?xml version="1.0" encoding="UTF-8" standalone="no"?>
<!-- Created with Inkscape (http://www.inkscape.org/) -->

<svg
   xmlns:dc="http://purl.org/dc/elements/1.1/"
   xmlns:cc="http://creativecommons.org/ns#"
   xmlns:rdf="http://www.w3.org/1999/02/22-rdf-syntax-ns#"
   xmlns:svg="http://www.w3.org/2000/svg"
   xmlns="http://www.w3.org/2000/svg"
   xmlns:sodipodi="http://sodipodi.sourceforge.net/DTD/sodipodi-0.dtd"
   xmlns:inkscape="http://www.inkscape.org/namespaces/inkscape"
   width="640"
   height="480"
   id="svg3352"
   version="1.1"
   inkscape:version="0.91 r13725"
   viewBox="0 0 640 480"
   sodipodi:docname="crypto_talk_alice_bob_public_keys.svg">
  <defs
     id="defs3354" />
  <sodipodi:namedview
     id="base"
     pagecolor="#ffffff"
     bordercolor="#666666"
     borderopacity="1.0"
     inkscape:pageopacity="0.0"
     inkscape:pageshadow="2"
     inkscape:zoom="0.83972969"
     inkscape:cx="505.09169"
     inkscape:cy="240"
     inkscape:current-layer="layer1"
     inkscape:document-units="px"
     showgrid="false"
     inkscape:window-width="1309"
     inkscape:window-height="744"
     inkscape:window-x="51"
     inkscape:window-y="24"
     inkscape:window-maximized="1" />
  <metadata
     id="metadata3357">
    <rdf:RDF>
      <cc:Work
         rdf:about="">
        <dc:format>image/svg+xml</dc:format>
        <dc:type
           rdf:resource="http://purl.org/dc/dcmitype/StillImage" />
        <dc:title></dc:title>
      </cc:Work>
    </rdf:RDF>
  </metadata>
  <g
     id="layer1"
     inkscape:label="Layer 1"
     inkscape:groupmode="layer">
    <rect
       style="opacity:1;fill:#1a3def;fill-opacity:1;stroke:#000000;stroke-width:3.98837113;stroke-linecap:round;stroke-linejoin:round;stroke-miterlimit:4;stroke-dasharray:none;stroke-opacity:1"
       id="rect7292"
       width="106.14639"
       height="100.98326"
       x="137.31688"
       y="219.75659" />
    <text
       xml:space="preserve"
       style="font-style:normal;font-variant:normal;font-weight:normal;font-stretch:normal;font-size:27.5px;line-height:125%;font-family:'Droid Sans';-inkscape-font-specification:'Droid Sans, Normal';text-align:start;letter-spacing:0px;word-spacing:0px;writing-mode:lr-tb;text-anchor:start;fill:#000000;fill-opacity:1;stroke:none;stroke-width:1px;stroke-linecap:butt;stroke-linejoin:miter;stroke-opacity:1"
       x="107.13475"
       y="153.43262"
       id="text8138"
       sodipodi:linespacing="125%"><tspan
         sodipodi:role="line"
         id="tspan8140"
         x="107.13475"
         y="153.43262" /></text>
    <text
       xml:space="preserve"
       style="font-style:normal;font-variant:normal;font-weight:normal;font-stretch:normal;font-size:23.45172501px;line-height:125%;font-family:'Droid Sans';-inkscape-font-specification:'Droid Sans, Normal';text-align:start;letter-spacing:0px;word-spacing:0px;writing-mode:lr-tb;text-anchor:start;fill:#000000;fill-opacity:1;stroke:none;stroke-width:1px;stroke-linecap:butt;stroke-linejoin:miter;stroke-opacity:1"
       x="146.92436"
       y="351.87091"
       id="text8142"
       sodipodi:linespacing="125%"
       transform="scale(0.96404503,1.0372959)"><tspan
         sodipodi:role="line"
         id="tspan8144"
         x="146.92436"
         y="351.87091"
         style="font-style:normal;font-variant:normal;font-weight:normal;font-stretch:normal;font-size:34.11159897px;line-height:125%;font-family:'Droid Sans';-inkscape-font-specification:'Droid Sans, Normal';text-align:start;writing-mode:lr-tb;text-anchor:start">Alice</tspan></text>
    <path
       style="fill:none;fill-rule:evenodd;stroke:#ffffff;stroke-width:5;stroke-linecap:butt;stroke-linejoin:miter;stroke-miterlimit:4;stroke-dasharray:none;stroke-opacity:1"
       d="m 160.05674,285.0922 c -1.41133,3.23871 -1.29078,5.79892 -1.29078,9.03546 0,0.43026 -0.30424,0.98654 0,1.29078 0.30424,0.30424 0.90594,-0.19242 1.29078,0 0.54424,0.27212 0.74654,1.01866 1.29078,1.29078 0.38484,0.19242 0.90594,-0.19242 1.29078,0 0.54424,0.27212 0.74654,1.01866 1.29078,1.29078 1.03262,0.51631 2.83972,-0.51631 3.87234,0 0.54424,0.27212 0.74654,1.01866 1.29078,1.29078 0.76967,0.38484 1.97308,-0.60848 2.58156,0 0.30424,0.30424 -0.30424,0.98654 0,1.29078 0.30424,0.30424 0.90594,-0.19242 1.29078,0 0.54424,0.27212 0.74654,1.01866 1.29078,1.29078 0.38484,0.19242 0.86052,0 1.29078,0 0.86052,0 1.72104,0 2.58156,0 2.1513,0 4.3026,0 6.4539,0 3.01182,0 6.02364,0 9.03546,0 0.43026,0 0.98654,-0.30424 1.29078,0 0.30424,0.30424 -0.30424,0.98654 0,1.29078 0.30424,0.30424 0.86052,0 1.29078,0 0.43026,0 0.90595,0.19242 1.29078,0 0.54424,-0.27212 0.74654,-1.01866 1.29078,-1.29078 0.38484,-0.19241 0.90595,0.19242 1.29078,0 0.54424,-0.27212 0.74654,-1.01866 1.29078,-1.29078 0.38484,-0.19242 0.98654,0.30424 1.29078,0 0.30424,-0.30424 0,-0.86052 0,-1.29078 0,-0.43026 0,-0.86052 0,-1.29078 0,-0.31305 -0.0415,-3.83083 0,-3.87234 0.30424,-0.30424 0.98654,0.30424 1.29078,0 0.31061,-0.3106 -0.3106,-4.85252 0,-5.16312 0.30424,-0.30424 0.98655,0.30424 1.29078,0 0.30424,-0.30424 -0.19241,-0.90594 0,-1.29078 0.27213,-0.54424 1.01866,-0.74654 1.29079,-1.29078 0.19241,-0.38483 -0.19242,-0.90594 0,-1.29078 1.59501,-3.19004 1.29078,0.44555 1.29078,-2.58156"
       id="path8162"
       inkscape:connector-curvature="0" />
    <path
       style="fill:none;fill-rule:evenodd;stroke:#ffffff;stroke-width:5.0999999;stroke-linecap:butt;stroke-linejoin:miter;stroke-miterlimit:4;stroke-dasharray:none;stroke-opacity:1"
       d="m 165.21986,251.53192 c 0,5.59338 0,11.18676 0,16.78014 0,0.86052 0,1.72104 0,2.58156 0,0.43026 -0.43026,1.29078 0,1.29078 1.89926,0 1.29078,-3.36826 1.29078,-3.87234 0,-2.58156 0,-5.16312 0,-7.74468 0,-0.86052 0.27212,-1.7652 0,-2.58156 -0.19242,-0.57726 -1.17145,-0.69412 -1.29078,-1.29078 -0.33752,-1.68762 0.21347,-3.45537 0,-5.16312 -1.39513,-11.16107 -1.29078,-2.03564 -1.29078,-6.4539 0,-0.43026 0,-0.86052 0,-1.29078 0,-0.43026 -0.43026,-1.29078 0,-1.29078 0.43026,0 0,0.86052 0,1.29078 0,0.43026 0.19242,0.90594 0,1.29078 -0.27212,0.54424 -1.41011,0.69411 -1.29078,1.29078 0.37736,1.88681 1.72104,3.44208 2.58156,5.16312 z"
       id="path8164"
       inkscape:connector-curvature="0" />
    <path
       style="fill:none;fill-rule:evenodd;stroke:#ffffff;stroke-width:5.0999999;stroke-linecap:butt;stroke-linejoin:miter;stroke-miterlimit:4;stroke-dasharray:none;stroke-opacity:1"
       d="m 202.65248,245.07802 c -0.86052,1.72104 -1.72104,3.44208 -2.58156,5.16312 -0.43026,0 -0.98654,-0.30424 -1.29078,0 -0.60848,0.60848 0.38484,1.81188 0,2.58156 -0.27212,0.54424 -1.01866,0.74654 -1.29078,1.29078 -0.40715,0.81431 0.40716,5.63958 0,6.4539 -0.27212,0.54424 -1.01866,0.74654 -1.29078,1.29078 -0.19241,0.38483 0,0.86052 0,1.29078 0,0.43026 0,0.86052 0,1.29078 0,2.58156 0,5.16312 0,7.74468"
       id="path8166"
       inkscape:connector-curvature="0" />
    <rect
       style="opacity:1;fill:#00ff00;fill-opacity:1;stroke:#000000;stroke-width:3.9892664;stroke-linecap:round;stroke-linejoin:round;stroke-miterlimit:4;stroke-dasharray:none;stroke-opacity:1"
       id="rect7292-2"
       width="104.85471"
       height="102.27315"
       x="408.32086"
       y="225.63348"
       inkscape:transform-center-x="166.64405"
       inkscape:transform-center-y="47.202986" />
    <text
       xml:space="preserve"
       style="font-style:normal;font-variant:normal;font-weight:normal;font-stretch:normal;font-size:27.5px;line-height:125%;font-family:'Droid Sans';-inkscape-font-specification:'Droid Sans, Normal';text-align:start;letter-spacing:0px;word-spacing:0px;writing-mode:lr-tb;text-anchor:start;fill:#000000;fill-opacity:1;stroke:none;stroke-width:1px;stroke-linecap:butt;stroke-linejoin:miter;stroke-opacity:1"
       x="416.47467"
       y="372.09616"
       id="text8209"
       sodipodi:linespacing="125%"><tspan
         sodipodi:role="line"
         id="tspan8211"
         x="416.47467"
         y="372.09616"
         style="font-style:normal;font-variant:normal;font-weight:normal;font-stretch:normal;font-size:40px;line-height:125%;font-family:'Droid Sans';-inkscape-font-specification:'Droid Sans, Normal';text-align:start;writing-mode:lr-tb;text-anchor:start">Bob</tspan></text>
    <path
       style="fill:none;fill-rule:evenodd;stroke:#000000;stroke-width:5.0999999;stroke-linecap:butt;stroke-linejoin:miter;stroke-miterlimit:4;stroke-dasharray:none;stroke-opacity:1"
       d="m 447.24091,295.14078 c 0.43026,1.72104 0.49742,3.5764 1.29078,5.16312 0.19242,0.38484 0.90595,-0.19242 1.29078,0 0.54424,0.27212 0.74654,1.01866 1.29078,1.29078 0.76967,0.38484 1.81189,-0.38484 2.58156,0 0.54424,0.27212 0.74654,1.01866 1.29078,1.29078 0.51179,0.25589 3.60846,-0.26388 3.87234,0 0.30424,0.30424 -0.30424,0.98654 0,1.29078 0.60848,0.60848 1.97308,-0.60848 2.58156,0 0.30424,0.30424 -0.30424,0.98654 0,1.29078 0.30424,0.30424 0.86052,0 1.29078,0 1.72104,0 3.44208,0 5.16312,0 0.43026,0 0.86052,0 1.29078,0 0.43026,0 0.90595,0.19242 1.29078,0 0.54424,-0.27212 0.74654,-1.01866 1.29078,-1.29078 0.38484,-0.19242 0.98654,0.30424 1.29078,0 0.30424,-0.30424 -0.30424,-0.98654 0,-1.29078 0.60848,-0.60848 1.97308,0.60848 2.58156,0 0.30424,-0.30424 -0.30424,-0.98654 0,-1.29078 0.30424,-0.30424 0.98654,0.30424 1.29078,0 0.60848,-0.60848 -0.60848,-1.97308 0,-2.58156 0.30424,-0.30424 0.98654,0.30424 1.29078,0 0.60848,-0.60848 -0.38483,-1.81189 0,-2.58156 0.27212,-0.54424 1.01866,-0.74654 1.29078,-1.29078 0.19242,-0.38484 -0.30424,-0.98654 0,-1.29078 0.30424,-0.30424 0.90595,0.19242 1.29078,0 1.08849,-0.54424 1.49308,-2.03732 2.58157,-2.58156 0.76967,-0.38484 1.97308,0.60848 2.58156,0 1.72104,-1.72104 -2.1513,-1.29078 1.29078,-1.29078"
       id="path8217"
       inkscape:connector-curvature="0" />
    <path
       style="fill:none;fill-rule:evenodd;stroke:#000000;stroke-width:5.0999999;stroke-linecap:butt;stroke-linejoin:miter;stroke-miterlimit:4;stroke-dasharray:none;stroke-opacity:1"
       d="m 443.52556,249.69637 c -0.28249,1.69492 -0.65771,3.37697 -0.84746,5.08475 -0.0503,0.45244 -0.15459,5.31384 0,5.9322 0.1532,0.6128 0.69426,1.08212 0.84746,1.69492 0.13702,0.5481 -0.13703,1.14681 0,1.69491 0.1532,0.6128 0.69426,1.08212 0.84746,1.69492 0.11796,0.47184 -0.14631,4.09098 0,4.23729 0.19974,0.19975 0.84745,-0.28249 0.84745,0 0,0.28248 -0.56497,0 -0.84745,0"
       id="path4153"
       inkscape:connector-curvature="0" />
    <path
       style="fill:none;fill-rule:evenodd;stroke:#000000;stroke-width:5.0999999;stroke-linecap:butt;stroke-linejoin:miter;stroke-miterlimit:4;stroke-dasharray:none;stroke-opacity:1"
       d="m 474.03403,249.69637 c 0,1.69492 0,3.38984 0,5.08475 0,0.28249 0.12633,0.5948 0,0.84746 -0.17866,0.35732 -0.72112,0.46846 -0.84746,0.84746 -0.17865,0.53598 0,1.12994 0,1.69491 0,0.56497 0,1.12994 0,1.69492 0,1.9774 0,3.9548 0,5.9322 0,1.12994 0,2.25989 0,3.38983 0,0.28249 -0.19974,0.64771 0,0.84746 1.12995,1.12994 0.84746,-1.41243 0.84746,0.84746"
       id="path4155"
       inkscape:connector-curvature="0" />
    <path
       style="fill:#a2cff6;fill-opacity:1;fill-rule:evenodd;stroke:#000000;stroke-width:2.62267804;stroke-linecap:butt;stroke-linejoin:miter;stroke-miterlimit:4;stroke-dasharray:none;stroke-opacity:1"
       d="m 18.538779,393.12051 10.69489,66.80387 32.08472,-34.35628 18.18134,-0.95434 5.34745,-11.45209 17.111841,4.77169 1.0695,-17.17813 22.4593,11.45209 -12.83389,-28.63023 -63.099931,26.72155 z"
       id="path4157"
       inkscape:connector-curvature="0" />
    <path
       inkscape:connector-curvature="0"
       id="path4159"
       d="m 623.36839,389.87738 -19.77948,57.92751 -20.12392,-35.31475 -14.49609,-3.52191 -2.39754,-10.98573 -14.59043,1.73519 2.00726,-15.45696 -20.01674,6.89927 15.12731,-23.61364 46.39972,33.07284 z"
       style="fill:#92f09a;fill-opacity:1;fill-rule:evenodd;stroke:#000000;stroke-width:2.25989151;stroke-linecap:butt;stroke-linejoin:miter;stroke-miterlimit:4;stroke-dasharray:none;stroke-opacity:1" />
    <rect
       style="opacity:0;fill:#822424;fill-opacity:1;stroke:#000000;stroke-width:2.20000005;stroke-linecap:round;stroke-linejoin:round;stroke-miterlimit:4;stroke-dasharray:none;stroke-opacity:1"
       id="rect4161"
       width="110.1695"
       height="54.237282"
       x="201.87766"
       y="110.94625" />
    <rect
       style="opacity:0;fill:#af4343;fill-opacity:1;stroke:#000000;stroke-width:2.20000005;stroke-linecap:round;stroke-linejoin:round;stroke-miterlimit:4;stroke-dasharray:none;stroke-opacity:1"
       id="rect4163"
       width="111.86441"
       height="55.932205"
       x="137.28813"
       y="101.18644" />
    <rect
       style="opacity:0;fill:#af4343;fill-opacity:1;stroke:#000000;stroke-width:2.20000005;stroke-linecap:round;stroke-linejoin:round;stroke-miterlimit:4;stroke-dasharray:none;stroke-opacity:1"
       id="rect4208"
       width="91.696175"
       height="41.68008"
       x="176.24718"
       y="104.87929" />
    <rect
       style="opacity:1;fill:#ffffff;fill-opacity:1;stroke:#000000;stroke-width:2.20000005;stroke-linecap:round;stroke-linejoin:round;stroke-miterlimit:4;stroke-dasharray:none;stroke-opacity:1"
       id="rect4212"
       width="102.41391"
       height="51.206955"
       x="200.06438"
       y="94.161552" />
    <path
       style="fill:#dee6ff;fill-rule:evenodd;stroke:#000000;stroke-width:2.5;stroke-linecap:butt;stroke-linejoin:miter;stroke-miterlimit:4;stroke-dasharray:none;stroke-opacity:1;fill-opacity:1"
       d="m 201.25524,96.54327 46.44352,23.81719 51.20695,-25.00805 3.57258,0 -2.38172,-1.19086 -4.76344,-19.053747 -46.44351,-22.626328 -47.63438,22.626328 z"
       id="path4216"
       inkscape:connector-curvature="0" />
    <path
       style="fill:none;fill-rule:evenodd;stroke:#000000;stroke-width:2.5;stroke-linecap:butt;stroke-linejoin:miter;stroke-miterlimit:4;stroke-dasharray:none;stroke-opacity:1"
       d="m 201.25524,95.35241 95.26875,-1.19086 2.38172,-1.19086"
       id="path4218"
       inkscape:connector-curvature="0" />
    <rect
       y="134.65077"
       x="340.58578"
       height="41.68008"
       width="91.696175"
       id="rect4220"
       style="opacity:0;fill:#af4343;fill-opacity:1;stroke:#000000;stroke-width:2.20000005;stroke-linecap:round;stroke-linejoin:round;stroke-miterlimit:4;stroke-dasharray:none;stroke-opacity:1" />
    <rect
       y="103.68843"
       x="384.64758"
       height="51.206955"
       width="102.41391"
       id="rect4222"
       style="opacity:1;fill:#ffffff;fill-opacity:1;stroke:#000000;stroke-width:2.20000005;stroke-linecap:round;stroke-linejoin:round;stroke-miterlimit:4;stroke-dasharray:none;stroke-opacity:1" />
    <path
       inkscape:connector-curvature="0"
       id="path4224"
       d="m 385.83845,106.07014 46.44352,23.81719 51.20695,-25.00805 3.57258,0 -2.38172,-1.19086 -4.76344,-19.053735 -46.44351,-22.626335 -47.63438,22.626335 z"
       style="fill:#d6fad7;fill-rule:evenodd;stroke:#000000;stroke-width:2.5;stroke-linecap:butt;stroke-linejoin:miter;stroke-miterlimit:4;stroke-dasharray:none;stroke-opacity:1;fill-opacity:1" />
    <path
       inkscape:connector-curvature="0"
       id="path4226"
       d="m 385.83845,104.87928 95.26875,-1.19086 2.38172,-1.19086"
       style="fill:none;fill-rule:evenodd;stroke:#000000;stroke-width:2.5;stroke-linecap:butt;stroke-linejoin:miter;stroke-miterlimit:4;stroke-dasharray:none;stroke-opacity:1" />
    <path
       style="fill:none;fill-rule:evenodd;stroke:#000000;stroke-width:3.5;stroke-linecap:butt;stroke-linejoin:miter;stroke-miterlimit:4;stroke-dasharray:none;stroke-opacity:1"
       d="m 371.54813,454.99195 c 121.46766,-14.29031 185.77407,-26.1989 185.77407,-26.1989 l -39.29836,-15.48117 40.48922,15.48117 -25.00805,23.81719 2.38172,2.38171 0,0 -1.19086,-4.76343"
       id="path4228"
       inkscape:connector-curvature="0"
       sodipodi:nodetypes="cccccccc" />
    <path
       sodipodi:nodetypes="cccccccc"
       inkscape:connector-curvature="0"
       id="path4230"
       d="M 210.29005,452.14238 C 142.2226,441.44961 106.1869,432.53896 106.1869,432.53896 l 22.02181,-11.58385 -22.68914,11.58385 14.01389,17.82131 -1.33466,1.78211 0,0 0.66732,-3.56424"
       style="fill:none;fill-rule:evenodd;stroke:#000000;stroke-width:3.2;stroke-linecap:butt;stroke-linejoin:miter;stroke-miterlimit:4;stroke-dasharray:none;stroke-opacity:1" />
    <text
       xml:space="preserve"
       style="font-style:normal;font-variant:normal;font-weight:normal;font-stretch:normal;font-size:27.5px;line-height:125%;font-family:'Droid Sans';-inkscape-font-specification:'Droid Sans, Normal';text-align:start;letter-spacing:0px;word-spacing:0px;writing-mode:lr-tb;text-anchor:start;fill:#000000;fill-opacity:1;stroke:none;stroke-width:1px;stroke-linecap:butt;stroke-linejoin:miter;stroke-opacity:1"
       x="204.82784"
       y="437.12906"
       id="text4232"
       sodipodi:linespacing="125%"><tspan
         sodipodi:role="line"
         id="tspan4234"
         x="204.82784"
         y="437.12906"
         style="font-style:normal;font-variant:normal;font-weight:normal;font-stretch:normal;font-size:25px;line-height:125%;font-family:'Droid Sans';-inkscape-font-specification:'Droid Sans, Normal';text-align:start;writing-mode:lr-tb;text-anchor:start;fill:#000000">Their Secret Keys</tspan></text>
    <path
       style="fill:none;fill-rule:evenodd;stroke:#000000;stroke-width:3.20000005;stroke-linecap:butt;stroke-linejoin:miter;stroke-miterlimit:4;stroke-dasharray:none;stroke-opacity:1"
       d="m 79.812634,57.16198 c 61.257436,31.544263 92.666436,51.32925 92.666436,51.32925 l -24.54662,4.07547 25.18013,-3.86573 -7.70256,-21.322725 1.82714,-1.272323 0,0 -1.75374,3.173886"
       id="path4255"
       inkscape:connector-curvature="0"
       sodipodi:nodetypes="cccccccc"
       inkscape:transform-center-x="-0.8579869"
       inkscape:transform-center-y="-31.041841" />
    <path
       inkscape:transform-center-y="7.5741466"
       inkscape:transform-center-x="-33.767879"
       sodipodi:nodetypes="cccccccc"
       inkscape:connector-curvature="0"
       id="path4257"
       d="m 569.60878,58.552901 c -49.71017,40.07319 -78.92269,59.873409 -78.92269,59.873409 l 2.67979,-19.514875 -3.07376,19.953385 24.15105,-1.44929 0.79986,1.65299 0,0 -2.78162,-1.99043"
       style="fill:none;fill-rule:evenodd;stroke:#000000;stroke-width:2.93723464;stroke-linecap:butt;stroke-linejoin:miter;stroke-miterlimit:4;stroke-dasharray:none;stroke-opacity:1" />
    <text
       sodipodi:linespacing="125%"
       id="text4259"
       y="45.336323"
       x="421.56424"
       style="font-style:normal;font-variant:normal;font-weight:normal;font-stretch:normal;font-size:27.5px;line-height:125%;font-family:'Droid Sans';-inkscape-font-specification:'Droid Sans, Normal';text-align:start;letter-spacing:0px;word-spacing:0px;writing-mode:lr-tb;text-anchor:start;fill:#000000;fill-opacity:1;stroke:none;stroke-width:1px;stroke-linecap:butt;stroke-linejoin:miter;stroke-opacity:1"
       xml:space="preserve"><tspan
         style="font-style:normal;font-variant:normal;font-weight:normal;font-stretch:normal;font-size:25px;line-height:125%;font-family:'Droid Sans';-inkscape-font-specification:'Droid Sans, Normal';text-align:start;writing-mode:lr-tb;text-anchor:start;fill:#000000"
         y="45.336323"
         x="421.56424"
         id="tspan4261"
         sodipodi:role="line">Bob's Secret Key</tspan></text>
    <text
       xml:space="preserve"
       style="font-style:normal;font-variant:normal;font-weight:normal;font-stretch:normal;font-size:27.5px;line-height:125%;font-family:'Droid Sans';-inkscape-font-specification:'Droid Sans, Normal';text-align:start;letter-spacing:0px;word-spacing:0px;writing-mode:lr-tb;text-anchor:start;fill:#000000;fill-opacity:1;stroke:none;stroke-width:1px;stroke-linecap:butt;stroke-linejoin:miter;stroke-opacity:1"
       x="27.389765"
       y="50.099762"
       id="text4263"
       sodipodi:linespacing="125%"><tspan
         sodipodi:role="line"
         id="tspan4265"
         x="27.389765"
         y="50.099762"
         style="font-style:normal;font-variant:normal;font-weight:normal;font-stretch:normal;font-size:25px;line-height:125%;font-family:'Droid Sans';-inkscape-font-specification:'Droid Sans, Normal';text-align:start;writing-mode:lr-tb;text-anchor:start;fill:#000000">Alice's Public Key</tspan></text>
  </g>
</svg>
