<?xml version="1.0" encoding="UTF-8" standalone="no"?>
<!-- Created with Inkscape (http://www.inkscape.org/) -->

<svg
   xmlns:dc="http://purl.org/dc/elements/1.1/"
   xmlns:cc="http://creativecommons.org/ns#"
   xmlns:rdf="http://www.w3.org/1999/02/22-rdf-syntax-ns#"
   xmlns:svg="http://www.w3.org/2000/svg"
   xmlns="http://www.w3.org/2000/svg"
   xmlns:sodipodi="http://sodipodi.sourceforge.net/DTD/sodipodi-0.dtd"
   xmlns:inkscape="http://www.inkscape.org/namespaces/inkscape"
   width="640"
   height="480"
   id="svg3352"
   version="1.1"
   inkscape:version="0.91 r13725"
   viewBox="0 0 640 480"
   sodipodi:docname="crypto_talk_alice.svg">
  <defs
     id="defs3354" />
  <sodipodi:namedview
     id="base"
     pagecolor="#ffffff"
     bordercolor="#666666"
     borderopacity="1.0"
     inkscape:pageopacity="0.0"
     inkscape:pageshadow="2"
     inkscape:zoom="0.77472527"
     inkscape:cx="253.82978"
     inkscape:cy="240"
     inkscape:current-layer="layer1"
     inkscape:document-units="px"
     showgrid="false"
     inkscape:window-width="1309"
     inkscape:window-height="744"
     inkscape:window-x="51"
     inkscape:window-y="24"
     inkscape:window-maximized="1" />
  <metadata
     id="metadata3357">
    <rdf:RDF>
      <cc:Work
         rdf:about="">
        <dc:format>image/svg+xml</dc:format>
        <dc:type
           rdf:resource="http://purl.org/dc/dcmitype/StillImage" />
        <dc:title></dc:title>
      </cc:Work>
    </rdf:RDF>
  </metadata>
  <g
     id="layer1"
     inkscape:label="Layer 1"
     inkscape:groupmode="layer">
    <rect
       style="opacity:1;fill:#1a3def;fill-opacity:1;stroke:#000000;stroke-width:3.98837113;stroke-linecap:round;stroke-linejoin:round;stroke-miterlimit:4;stroke-dasharray:none;stroke-opacity:1"
       id="rect7292"
       width="106.14639"
       height="100.98326"
       x="146.35234"
       y="253.31688" />
    <text
       xml:space="preserve"
       style="font-style:normal;font-variant:normal;font-weight:normal;font-stretch:normal;font-size:27.5px;line-height:125%;font-family:'Droid Sans';-inkscape-font-specification:'Droid Sans, Normal';text-align:start;letter-spacing:0px;word-spacing:0px;writing-mode:lr-tb;text-anchor:start;fill:#000000;fill-opacity:1;stroke:none;stroke-width:1px;stroke-linecap:butt;stroke-linejoin:miter;stroke-opacity:1"
       x="107.13475"
       y="153.43262"
       id="text8138"
       sodipodi:linespacing="125%"><tspan
         sodipodi:role="line"
         id="tspan8140"
         x="107.13475"
         y="153.43262" /></text>
    <text
       xml:space="preserve"
       style="font-style:normal;font-variant:normal;font-weight:normal;font-stretch:normal;font-size:27.5px;line-height:125%;font-family:'Droid Sans';-inkscape-font-specification:'Droid Sans, Normal';text-align:start;letter-spacing:0px;word-spacing:0px;writing-mode:lr-tb;text-anchor:start;fill:#000000;fill-opacity:1;stroke:none;stroke-width:1px;stroke-linecap:butt;stroke-linejoin:miter;stroke-opacity:1"
       x="147.14893"
       y="409.00708"
       id="text8142"
       sodipodi:linespacing="125%"><tspan
         sodipodi:role="line"
         id="tspan8144"
         x="147.14893"
         y="409.00708"
         style="font-style:normal;font-variant:normal;font-weight:normal;font-stretch:normal;font-size:40px;line-height:125%;font-family:'Droid Sans';-inkscape-font-specification:'Droid Sans, Normal';text-align:start;writing-mode:lr-tb;text-anchor:start">Alice</tspan></text>
    <path
       style="fill:none;fill-rule:evenodd;stroke:#ffffff;stroke-width:5;stroke-linecap:butt;stroke-linejoin:miter;stroke-opacity:1;stroke-miterlimit:4;stroke-dasharray:none"
       d="m 169.0922,318.65248 c -1.41133,3.23871 -1.29078,5.79892 -1.29078,9.03546 0,0.43026 -0.30424,0.98654 0,1.29078 0.30424,0.30424 0.90594,-0.19242 1.29078,0 0.54424,0.27212 0.74654,1.01866 1.29078,1.29078 0.38484,0.19242 0.90594,-0.19242 1.29078,0 0.54424,0.27212 0.74654,1.01866 1.29078,1.29078 1.03262,0.51631 2.83972,-0.51631 3.87234,0 0.54424,0.27212 0.74654,1.01866 1.29078,1.29078 0.76967,0.38484 1.97308,-0.60848 2.58156,0 0.30424,0.30424 -0.30424,0.98654 0,1.29078 0.30424,0.30424 0.90594,-0.19242 1.29078,0 0.54424,0.27212 0.74654,1.01866 1.29078,1.29078 0.38484,0.19242 0.86052,0 1.29078,0 0.86052,0 1.72104,0 2.58156,0 2.1513,0 4.3026,0 6.4539,0 3.01182,0 6.02364,0 9.03546,0 0.43026,0 0.98654,-0.30424 1.29078,0 0.30424,0.30424 -0.30424,0.98654 0,1.29078 0.30424,0.30424 0.86052,0 1.29078,0 0.43026,0 0.90595,0.19242 1.29078,0 0.54424,-0.27212 0.74654,-1.01866 1.29078,-1.29078 0.38484,-0.19241 0.90595,0.19242 1.29078,0 0.54424,-0.27212 0.74654,-1.01866 1.29078,-1.29078 0.38484,-0.19242 0.98654,0.30424 1.29078,0 0.30424,-0.30424 0,-0.86052 0,-1.29078 0,-0.43026 0,-0.86052 0,-1.29078 0,-0.31305 -0.0415,-3.83083 0,-3.87234 0.30424,-0.30424 0.98654,0.30424 1.29078,0 0.31061,-0.3106 -0.3106,-4.85252 0,-5.16312 0.30424,-0.30424 0.98655,0.30424 1.29078,0 0.30424,-0.30424 -0.19241,-0.90594 0,-1.29078 0.27213,-0.54424 1.01866,-0.74654 1.29079,-1.29078 0.19241,-0.38483 -0.19242,-0.90594 0,-1.29078 1.59501,-3.19004 1.29078,0.44555 1.29078,-2.58156"
       id="path8162"
       inkscape:connector-curvature="0" />
    <path
       style="fill:none;fill-rule:evenodd;stroke:#ffffff;stroke-width:5.1;stroke-linecap:butt;stroke-linejoin:miter;stroke-opacity:1;stroke-miterlimit:4;stroke-dasharray:none"
       d="m 174.25532,285.0922 c 0,5.59338 0,11.18676 0,16.78014 0,0.86052 0,1.72104 0,2.58156 0,0.43026 -0.43026,1.29078 0,1.29078 1.89926,0 1.29078,-3.36826 1.29078,-3.87234 0,-2.58156 0,-5.16312 0,-7.74468 0,-0.86052 0.27212,-1.7652 0,-2.58156 -0.19242,-0.57726 -1.17145,-0.69412 -1.29078,-1.29078 -0.33752,-1.68762 0.21347,-3.45537 0,-5.16312 -1.39513,-11.16107 -1.29078,-2.03564 -1.29078,-6.4539 0,-0.43026 0,-0.86052 0,-1.29078 0,-0.43026 -0.43026,-1.29078 0,-1.29078 0.43026,0 0,0.86052 0,1.29078 0,0.43026 0.19242,0.90594 0,1.29078 -0.27212,0.54424 -1.41011,0.69411 -1.29078,1.29078 0.37736,1.88681 1.72104,3.44208 2.58156,5.16312 z"
       id="path8164"
       inkscape:connector-curvature="0" />
    <path
       style="fill:none;fill-rule:evenodd;stroke:#ffffff;stroke-width:5.1;stroke-linecap:butt;stroke-linejoin:miter;stroke-opacity:1;stroke-miterlimit:4;stroke-dasharray:none"
       d="m 211.68794,278.6383 c -0.86052,1.72104 -1.72104,3.44208 -2.58156,5.16312 -0.43026,0 -0.98654,-0.30424 -1.29078,0 -0.60848,0.60848 0.38484,1.81188 0,2.58156 -0.27212,0.54424 -1.01866,0.74654 -1.29078,1.29078 -0.40715,0.81431 0.40716,5.63958 0,6.4539 -0.27212,0.54424 -1.01866,0.74654 -1.29078,1.29078 -0.19241,0.38483 0,0.86052 0,1.29078 0,0.43026 0,0.86052 0,1.29078 0,2.58156 0,5.16312 0,7.74468"
       id="path8166"
       inkscape:connector-curvature="0" />
  </g>
</svg>
